<svg width="24" height="24" viewBox="0 0 24 24" fill="none" xmlns="http://www.w3.org/2000/svg">
<path d="M23.6079 17.0129L20.8079 6.91293C20.2453 4.88121 19.0189 3.0962 17.3243 1.84223C15.6296 0.588258 13.564 -0.0625524 11.4565 -0.00653652C9.3491 0.0494794 7.32101 0.8091 5.69533 2.15133C4.06964 3.49356 2.93985 5.34119 2.48593 7.39993L0.320935 17.1399C0.239769 17.5054 0.241723 17.8844 0.326651 18.2491C0.411579 18.6137 0.577313 18.9546 0.811618 19.2466C1.04592 19.5386 1.34282 19.7742 1.68038 19.9361C2.01794 20.098 2.38756 20.182 2.76193 20.1819H6.90493C7.22317 21.2824 7.89037 22.2498 8.80606 22.9382C9.72175 23.6266 10.8363 23.9988 11.9819 23.9988C13.1275 23.9988 14.2421 23.6266 15.1578 22.9382C16.0735 22.2498 16.7407 21.2824 17.0589 20.1819H21.1999C21.5853 20.182 21.9655 20.0929 22.3108 19.9216C22.6561 19.7504 22.9571 19.5017 23.1903 19.1949C23.4236 18.888 23.5827 18.5315 23.6553 18.1529C23.7279 17.7744 23.7121 17.3843 23.6089 17.0129H23.6079ZM3.38493 17.1819L5.41493 8.04493C5.72585 6.641 6.49748 5.38143 7.60698 4.46671C8.71648 3.552 10.1001 3.03473 11.5375 2.99725C12.975 2.95976 14.3837 3.4042 15.5394 4.25984C16.695 5.11547 17.5313 6.33311 17.9149 7.71893L20.5429 17.1819H3.38493Z" fill="#008FFF"/>
</svg>
