<svg width="235" height="59" viewBox="0 0 235 59" fill="none" xmlns="http://www.w3.org/2000/svg">
<path d="M70.1991 1.49362L51.254 6.54039C43.1618 8.6942 34.6469 8.6942 26.5547 6.54039L7.60962 1.49362L31.4835 13.065C32.6407 13.624 33.6168 14.4982 34.2996 15.587C34.9823 16.6758 35.3441 17.9351 35.3433 19.2202V22.1288L38.92 24.0155L42.3082 22.1288V19.2989C42.3087 18.013 42.671 16.7531 43.3535 15.6633C44.036 14.5735 45.0113 13.6976 46.168 13.1358L70.1991 1.49362Z" fill="white"/>
<path d="M50.6093 13.0886C49.747 13.5044 49.0196 14.155 48.5106 14.9657C48.0017 15.7765 47.7318 16.7144 47.7321 17.6716V20.7767L39.0378 25.7999L38.9198 25.7292L38.802 25.7999L30.1077 20.7767V17.6716C30.1074 16.7155 29.8373 15.7789 29.3283 14.9695C28.8193 14.1601 28.0921 13.5109 27.2305 13.0965L0 0L18.4419 11.5164C19.8882 12.4277 21.0796 13.6911 21.9045 15.1883C22.7295 16.6856 23.1609 18.3676 23.1585 20.0771V22.1288C23.1617 22.9261 23.3738 23.7086 23.7738 24.3982C24.1738 25.0879 24.7478 25.6607 25.4383 26.0593L31.8528 29.7697L25.4383 33.4723C24.7478 33.8709 24.1738 34.4436 23.7738 35.1333C23.3738 35.823 23.1617 36.6055 23.1585 37.4028V45.0751L30.0841 51.136V38.8177L38.7784 33.7946L38.8963 33.8653L39.0143 33.7946L47.7085 38.8177V45.1066V51.2146L54.6262 45.1537V37.4814C54.6247 36.6847 54.414 35.9024 54.0154 35.2127C53.6167 34.5229 53.0439 33.9499 52.3544 33.5509L45.9319 29.8483L52.3465 26.1379C53.0381 25.7405 53.6128 25.168 54.013 24.4781C54.4131 23.7881 54.6247 23.005 54.6262 22.2074V20.1399C54.6218 18.429 55.0522 16.7451 55.8773 15.2462C56.7023 13.7474 57.8949 12.4829 59.3429 11.5715L77.7769 0.0629016L50.6093 13.0886Z" fill="white"/>
<path d="M42.3081 56.0256L38.9672 58.9734L35.3433 55.7897V37.3714L38.92 35.4847L42.3081 37.3714V56.0256Z" fill="white"/>
<path d="M92.61 29.2096C90.9674 25.693 89.3979 22.5041 87.9018 19.6429H94.0213L96.6125 24.9989L101.702 19.6429H107.822C104.984 22.5118 101.93 25.7007 98.66 29.2096L103.287 38.892H97.1793C96.6356 37.8625 95.7796 36.0579 94.5881 33.5014C92.2167 36.0579 90.5161 37.8625 89.4866 38.892H83.4597L92.61 29.2096Z" fill="url(#paint0_linear_86_257)"/>
<path d="M113.594 24.0273H107.22L108.296 19.643H125.371L124.295 24.0273H118.164L115.017 38.8921H110.39L113.594 24.0273Z" fill="url(#paint1_linear_86_257)"/>
<path d="M133.63 22.8357C133.842 21.9163 134.363 21.0975 135.106 20.5164C135.849 19.9352 136.77 19.6268 137.713 19.643H150.993L149.964 24.0619H138.523C138.4 24.0643 138.281 24.1093 138.187 24.1893C138.072 24.2715 137.987 24.3893 137.944 24.5247L137.354 27.0697H145.151L144.18 31.4655H136.337L135.793 33.7791C135.777 33.8626 135.78 33.9486 135.802 34.0307C135.824 34.1128 135.865 34.1889 135.92 34.2533C135.971 34.3182 136.036 34.3707 136.11 34.4068C136.184 34.4429 136.266 34.4616 136.348 34.4615H147.546C147.234 35.8034 146.898 37.2726 146.516 38.8574H135.18C134.554 38.877 133.933 38.7525 133.363 38.4938C132.794 38.2351 132.291 37.8489 131.894 37.3651C131.486 36.8963 131.195 36.337 131.047 35.7335C130.898 35.1299 130.895 34.4996 131.038 33.8947L133.63 22.8357Z" fill="url(#paint2_linear_86_257)"/>
<path d="M148.761 38.9037L149.582 34.9127H157.148C157.957 34.9822 158.432 34.7277 158.594 34.1609C158.755 33.594 158.154 33.2585 157.205 33.3164H155.077C154.443 33.3458 153.811 33.2333 153.227 32.9871C152.643 32.741 152.121 32.3673 151.699 31.8935C151.295 31.357 151.019 30.735 150.893 30.0752C150.766 29.4155 150.793 28.7356 150.97 28.0877C151.826 25.2882 153.978 23.9926 157.425 24.2008H165.372L164.528 28.0298H156.708C156.106 28.0298 155.771 28.2149 155.678 28.6776C155.647 28.8215 155.668 28.972 155.738 29.1016C155.808 29.2312 155.922 29.3312 156.06 29.3833C156.433 29.5053 156.827 29.5486 157.217 29.5105H159.126C160.919 29.5105 162.099 30.0774 162.677 31.0259C163.29 32.1997 163.458 33.5553 163.151 34.8433C162.55 37.6891 160.583 39.0618 157.252 38.9615L148.761 38.9037Z" fill="white"/>
<path d="M165.662 29.3601H170.208L168.866 34.8433H171.758C173.805 34.8433 175.159 33.6865 175.83 31.4539C176.011 30.6666 175.887 29.8398 175.483 29.1403C175.215 28.7676 174.854 28.4719 174.436 28.2831C174.017 28.0942 173.557 28.0189 173.1 28.0645H165.997L166.957 24.2123H173.609C175.421 24.1269 177.207 24.6705 178.664 25.7509C179.271 26.2041 179.765 26.7921 180.106 27.4686C180.448 28.1451 180.627 28.8916 180.631 29.6493C180.637 30.8962 180.389 32.1313 179.902 33.279C179.415 34.4267 178.698 35.4629 177.796 36.324C176.003 37.9768 173.664 38.9115 171.226 38.9499H167.825L166.471 44.3753H161.844L165.662 29.3601Z" fill="white"/>
<path d="M183.025 36.8215C181.868 35.6647 181.452 33.9411 181.764 31.5581C182.767 27.3782 185.879 24.9219 191.1 24.1893C194.069 24.0736 196.205 24.7522 197.508 26.2252C199.328 28.7239 199.178 31.6352 197.057 34.959C194.743 37.9282 191.489 39.216 187.294 38.8227C185.685 38.6584 184.18 37.9528 183.025 36.8215ZM193.436 28.2612C192.879 27.7625 192.16 27.483 191.412 27.4745C190.836 27.4281 190.257 27.4995 189.71 27.6845C189.163 27.8695 188.66 28.1641 188.231 28.5504C187.339 29.3359 186.75 30.4077 186.565 31.5812C186.183 34.0336 187.317 35.306 189.931 35.4217C190.524 35.4024 191.107 35.2585 191.641 34.9994C192.175 34.7404 192.649 34.3719 193.031 33.9179C193.898 32.8837 194.352 31.5649 194.304 30.2161C194.299 29.8484 194.22 29.4855 194.071 29.1494C193.922 28.8133 193.706 28.511 193.436 28.2612Z" fill="white"/>
<path d="M205.166 24.1661H209.724L208.776 28.3653H206.219C205.923 28.3634 205.637 28.4751 205.421 28.6776C205.181 28.8712 205.014 29.1404 204.947 29.4411L202.633 38.8921H197.925L200.539 28.2381C200.785 27.1591 201.364 26.1849 202.194 25.4539C203.025 24.7229 204.065 24.2723 205.166 24.1661Z" fill="white"/>
<path d="M212.651 19.643H217.382C217.382 19.643 217.382 19.7009 217.382 19.7356V19.886C217.382 19.886 217.382 20.0132 217.382 20.0942C217.382 20.1751 217.382 20.2677 217.301 20.3718C217.22 20.4759 217.301 20.5916 217.22 20.7189L217.104 21.17C217.058 21.3319 217.012 21.5171 216.965 21.7253C216.919 21.9335 216.861 22.1532 216.792 22.3846C216.734 22.616 216.676 22.8821 216.607 23.1597C216.537 23.4373 216.456 23.7496 216.364 24.0736H219.753L218.816 28.3421H215.346C215.346 28.3421 215.346 28.4115 215.346 28.4578C215.342 28.5117 215.342 28.5658 215.346 28.6197C215.346 28.6892 215.346 28.7701 215.346 28.8511C215.346 28.9321 215.346 29.0594 215.265 29.1751L215.149 29.6031C215.149 29.765 215.068 29.9385 215.022 30.1467L214.872 30.8061L214.675 31.6159C214.606 31.9166 214.524 32.2405 214.432 32.5875L214.154 33.7443C214.119 33.9769 214.177 34.2139 214.316 34.4037C214.391 34.4968 214.486 34.5713 214.595 34.6215C214.703 34.6716 214.822 34.6961 214.941 34.6929H217.393L216.445 38.7533H213.021C212.426 38.7721 211.835 38.6448 211.301 38.3827C210.766 38.1205 210.304 37.7314 209.955 37.2495C209.588 36.759 209.334 36.1939 209.21 35.5941C209.086 34.9944 209.096 34.3747 209.238 33.7791L212.651 19.643Z" fill="white"/>
<path d="M218.389 38.9037L219.198 34.9127H226.775C227.574 34.9822 228.059 34.7277 228.221 34.1609C228.383 33.594 227.782 33.2585 226.833 33.3164H224.705C224.071 33.3466 223.439 33.2345 222.854 32.9883C222.27 32.742 221.748 32.368 221.327 31.8935C220.92 31.3582 220.643 30.7362 220.517 30.076C220.39 29.4158 220.418 28.7353 220.598 28.0877C221.447 25.2882 223.594 23.9926 227.041 24.2008H235L234.156 28.0298H226.324C225.734 28.0298 225.387 28.2149 225.306 28.6776C225.275 28.8215 225.296 28.972 225.366 29.1016C225.436 29.2312 225.55 29.3312 225.688 29.3833C226.06 29.5059 226.455 29.5493 226.845 29.5105H228.754C230.535 29.5105 231.727 30.0774 232.305 31.0259C232.914 32.2011 233.078 33.5567 232.768 34.8433C232.174 37.6891 230.207 39.0618 226.868 38.9615L218.389 38.9037Z" fill="white"/>
<defs>
<linearGradient id="paint0_linear_86_257" x1="79.3531" y1="16.1725" x2="140.189" y2="65.163" gradientUnits="userSpaceOnUse">
<stop stop-color="#0064D5"/>
<stop offset="0.23" stop-color="#008EFF"/>
<stop offset="0.41" stop-color="#009FFF"/>
<stop offset="0.59" stop-color="#0042A8"/>
<stop offset="0.77" stop-color="#0074F4"/>
<stop offset="1" stop-color="#0069E0"/>
</linearGradient>
<linearGradient id="paint1_linear_86_257" x1="88.1218" y1="5.29873" x2="148.946" y2="54.2888" gradientUnits="userSpaceOnUse">
<stop stop-color="#0064D5"/>
<stop offset="0.23" stop-color="#008EFF"/>
<stop offset="0.41" stop-color="#009FFF"/>
<stop offset="0.59" stop-color="#0042A8"/>
<stop offset="0.77" stop-color="#0074F4"/>
<stop offset="1" stop-color="#0069E0"/>
</linearGradient>
<linearGradient id="paint2_linear_86_257" x1="97.7227" y1="-6.62791" x2="158.559" y2="42.3624" gradientUnits="userSpaceOnUse">
<stop stop-color="#0064D5"/>
<stop offset="0.23" stop-color="#008EFF"/>
<stop offset="0.41" stop-color="#009FFF"/>
<stop offset="0.59" stop-color="#0042A8"/>
<stop offset="0.77" stop-color="#0074F4"/>
<stop offset="1" stop-color="#0069E0"/>
</linearGradient>
</defs>
</svg>
