<svg width="13" height="13" viewBox="0 0 13 13" fill="none" xmlns="http://www.w3.org/2000/svg">
<path d="M9.63897 0.322922H3.04869C2.30946 0.323727 1.60074 0.617741 1.07803 1.14045C0.555317 1.66317 0.261303 2.37189 0.260498 3.11112L0.260498 9.70139C0.261303 10.4406 0.555317 11.1493 1.07803 11.6721C1.60074 12.1948 2.30946 12.4888 3.04869 12.4896H9.63897C10.3782 12.4888 11.0869 12.1948 11.6096 11.6721C12.1323 11.1493 12.4264 10.4406 12.4272 9.70139V3.11112C12.4264 2.37189 12.1323 1.66317 11.6096 1.14045C11.0869 0.617741 10.3782 0.323727 9.63897 0.322922V0.322922ZM5.32994 7.42014V5.39237H7.35772V7.42014H5.32994ZM7.35772 8.94098V10.9688H5.32994V8.94098H7.35772ZM1.78133 5.39237H3.80911V7.42014H1.78133V5.39237ZM5.32994 3.87153V1.84376H7.35772V3.87153H5.32994ZM8.87855 5.39237H10.9063V7.42014H8.87855V5.39237ZM10.9063 3.11112V3.87153H8.87855V1.84376H9.63897C9.97509 1.84376 10.2975 1.97728 10.5351 2.21496C10.7728 2.45263 10.9063 2.77499 10.9063 3.11112ZM3.04869 1.84376H3.80911V3.87153H1.78133V3.11112C1.78133 2.77499 1.91486 2.45263 2.15253 2.21496C2.39021 1.97728 2.71257 1.84376 3.04869 1.84376ZM1.78133 9.70139V8.94098H3.80911V10.9688H3.04869C2.71257 10.9688 2.39021 10.8352 2.15253 10.5976C1.91486 10.3599 1.78133 10.0375 1.78133 9.70139ZM9.63897 10.9688H8.87855V8.94098H10.9063V9.70139C10.9063 10.0375 10.7728 10.3599 10.5351 10.5976C10.2975 10.8352 9.97509 10.9688 9.63897 10.9688Z" fill="#0185EB"/>
</svg>
