<svg width="13" height="13" viewBox="0 0 13 13" fill="none" xmlns="http://www.w3.org/2000/svg">
<g clip-path="url(#clip0_53_489)">
<path d="M9.04591 1.84375H3.26675C2.30355 1.84375 1.44175 2.35069 0.934804 3.2125C0.377165 4.17569 0.072998 5.29097 0.072998 6.40625C0.072998 8.89028 1.08689 11.4757 2.7598 11.4757C3.6723 11.4757 4.43272 10.766 4.78758 9.6C4.83828 9.49861 4.88897 9.44792 4.99036 9.44792H7.3223C7.42369 9.44792 7.52508 9.49861 7.52508 9.6C8.03203 11.2222 8.99522 11.4757 9.50216 11.4757C11.2258 11.4757 12.2397 8.89028 12.2397 6.40625C12.2397 5.29097 11.9355 4.17569 11.3779 3.16181C10.9216 2.35069 10.0091 1.84375 9.04591 1.84375ZM9.55286 9.95486C9.40078 9.95486 9.198 9.70139 9.04591 9.14375C8.79244 8.43403 8.13341 7.92708 7.373 7.92708H4.99036C4.22994 7.92708 3.57091 8.43403 3.31744 9.14375C3.16536 9.65069 2.91189 9.95486 2.7598 9.95486C2.45564 9.90417 1.59383 8.63681 1.59383 6.40625C1.59383 5.54444 1.8473 4.68264 2.25286 3.92222C2.45564 3.56736 2.86119 3.36458 3.26675 3.36458H9.04591C9.45147 3.36458 9.85703 3.56736 10.0598 3.92222C10.5161 4.68264 10.7188 5.54444 10.7188 6.40625C10.7188 8.63681 9.85703 9.90417 9.55286 9.95486Z" fill="#0185EB"/>
<path d="M5.3961 4.88558H5.14263V4.63211C5.14263 4.22655 4.78777 3.87169 4.38222 3.87169C3.97666 3.87169 3.6218 4.22655 3.6218 4.63211V4.88558H3.36833C2.96277 4.88558 2.60791 5.24044 2.60791 5.64599C2.60791 6.05155 2.96277 6.40641 3.36833 6.40641H3.6218V6.65988C3.6218 7.06544 3.97666 7.4203 4.38222 7.4203C4.78777 7.4203 5.14263 7.06544 5.14263 6.65988V6.40641H5.3961C5.80166 6.40641 6.15652 6.05155 6.15652 5.64599C6.15652 5.24044 5.80166 4.88558 5.3961 4.88558Z" fill="#0185EB"/>
<path d="M8.69113 6.40608C9.25109 6.40608 9.70502 5.95215 9.70502 5.3922C9.70502 4.83224 9.25109 4.37831 8.69113 4.37831C8.13118 4.37831 7.67725 4.83224 7.67725 5.3922C7.67725 5.95215 8.13118 6.40608 8.69113 6.40608Z" fill="#0185EB"/>
</g>
<defs>
<clipPath id="clip0_53_489">
<rect width="12.1667" height="12.1667" fill="white" transform="translate(0.072998 0.322922)"/>
</clipPath>
</defs>
</svg>
