<svg width="11" height="13" viewBox="0 0 11 13" fill="none" xmlns="http://www.w3.org/2000/svg">
<path d="M9.03822 1.60285V1.04167C9.03822 0.839992 8.95811 0.646577 8.8155 0.503971C8.6729 0.361365 8.47948 0.28125 8.27781 0.28125C8.07613 0.28125 7.88272 0.361365 7.74011 0.503971C7.5975 0.646577 7.51739 0.839992 7.51739 1.04167V1.29514H6.25003V1.04167C6.25003 0.839992 6.16991 0.646577 6.02731 0.503971C5.8847 0.361365 5.69129 0.28125 5.48961 0.28125C5.28794 0.28125 5.09452 0.361365 4.95191 0.503971C4.80931 0.646577 4.72919 0.839992 4.72919 1.04167V1.29514H3.46183V1.04167C3.46183 0.839992 3.38172 0.646577 3.23911 0.503971C3.09651 0.361365 2.90309 0.28125 2.70142 0.28125C2.49974 0.28125 2.30633 0.361365 2.16372 0.503971C2.02111 0.646577 1.941 0.839992 1.941 1.04167V1.60285C1.48371 1.83622 1.09972 2.19131 0.831371 2.62898C0.563021 3.06666 0.420724 3.56994 0.420166 4.08333V9.65972C0.420971 10.3989 0.714985 11.1077 1.2377 11.6304C1.76041 12.1531 2.46913 12.4471 3.20836 12.4479H7.77086C8.51005 12.447 9.21869 12.1529 9.74137 11.6302C10.2641 11.1076 10.5581 10.3989 10.5591 9.65972V4.08333C10.5585 3.56994 10.4162 3.06666 10.1479 2.62898C9.8795 2.19131 9.49552 1.83622 9.03822 1.60285ZM9.03822 9.65972C9.03822 9.99585 8.9047 10.3182 8.66702 10.5559C8.42934 10.7936 8.10699 10.9271 7.77086 10.9271H3.20836C2.87224 10.9271 2.54988 10.7936 2.3122 10.5559C2.07452 10.3182 1.941 9.99585 1.941 9.65972V4.08333C1.941 3.74721 2.07452 3.42485 2.3122 3.18717C2.54988 2.9495 2.87224 2.81597 3.20836 2.81597H7.77086C8.10699 2.81597 8.42934 2.9495 8.66702 3.18717C8.9047 3.42485 9.03822 3.74721 9.03822 4.08333V9.65972ZM8.02433 4.59028C8.02433 4.79195 7.94422 4.98537 7.80161 5.12797C7.65901 5.27058 7.46559 5.35069 7.26392 5.35069H3.71531C3.51363 5.35069 3.32021 5.27058 3.17761 5.12797C3.035 4.98537 2.95489 4.79195 2.95489 4.59028C2.95489 4.3886 3.035 4.19519 3.17761 4.05258C3.32021 3.90998 3.51363 3.82986 3.71531 3.82986H7.26392C7.46559 3.82986 7.65901 3.90998 7.80161 4.05258C7.94422 4.19519 8.02433 4.3886 8.02433 4.59028ZM6.25003 7.125C6.25003 7.32667 6.16991 7.52009 6.02731 7.6627C5.8847 7.8053 5.69129 7.88542 5.48961 7.88542H3.71531C3.51363 7.88542 3.32021 7.8053 3.17761 7.6627C3.035 7.52009 2.95489 7.32667 2.95489 7.125C2.95489 6.92332 3.035 6.72991 3.17761 6.5873C3.32021 6.4447 3.51363 6.36458 3.71531 6.36458H5.48961C5.69129 6.36458 5.8847 6.4447 6.02731 6.5873C6.16991 6.72991 6.25003 6.92332 6.25003 7.125Z" fill="#0185EB"/>
</svg>
