<svg width="13" height="13" viewBox="0 0 13 13" fill="none" xmlns="http://www.w3.org/2000/svg">
<path d="M4.005 12.2044C3.6181 12.2026 3.24169 12.0784 2.92977 11.8495C2.61101 11.6253 2.37315 11.3041 2.25158 10.9338C2.13001 10.5635 2.13122 10.1639 2.25503 9.79435L2.84815 7.95972L1.28676 6.81808C0.973695 6.58934 0.740996 6.26745 0.621957 5.89845C0.502918 5.52946 0.50364 5.13226 0.624019 4.7637C0.744398 4.39513 0.978267 4.07409 1.29216 3.84649C1.60606 3.6189 1.9839 3.49642 2.37162 3.49658H4.2828L4.86326 1.68679C4.98238 1.31618 5.21606 0.992942 5.53064 0.763631C5.84521 0.534319 6.22445 0.410767 6.61374 0.410767C7.00302 0.410767 7.38226 0.534319 7.69683 0.763631C8.01141 0.992942 8.24509 1.31618 8.36421 1.68679L8.94669 3.49658H10.8579C11.2456 3.49653 11.6233 3.61908 11.9371 3.84672C12.2509 4.07435 12.4847 4.3954 12.605 4.76394C12.7254 5.13248 12.726 5.52963 12.607 5.89857C12.4879 6.26752 12.2553 6.58937 11.9422 6.81808L10.3813 7.95972L10.9745 9.79435C11.0941 10.1644 11.0932 10.5629 10.972 10.9324C10.8508 11.302 10.6155 11.6236 10.2999 11.8509C9.98439 12.0783 9.60487 12.1997 9.21595 12.1977C8.82704 12.1957 8.44878 12.0704 8.13558 11.8399L6.61475 10.7215L5.09392 11.8404C4.77923 12.0751 4.39757 12.2027 4.005 12.2044ZM2.37162 5.01741C2.30471 5.0174 2.23951 5.03855 2.18533 5.07782C2.13115 5.1171 2.09078 5.17249 2.06997 5.23609C2.04917 5.29968 2.049 5.36823 2.06949 5.43193C2.08997 5.49563 2.13007 5.55122 2.18405 5.59077L4.18953 7.05634C4.31866 7.15076 4.41473 7.28351 4.46406 7.43569C4.51339 7.58787 4.51347 7.75173 4.46429 7.90395L3.70387 10.2612C3.68277 10.3252 3.68256 10.3942 3.70326 10.4583C3.72396 10.5223 3.7645 10.5782 3.81902 10.6177C3.87355 10.6572 3.93922 10.6783 4.00656 10.678C4.07389 10.6778 4.13939 10.6561 4.19358 10.6161L6.16509 9.16574C6.2957 9.06963 6.45361 9.0178 6.61576 9.0178C6.77792 9.0178 6.93583 9.06963 7.06644 9.16574L9.03794 10.6156C9.09207 10.6559 9.15766 10.6779 9.22515 10.6784C9.29265 10.6788 9.35853 10.6577 9.41319 10.6181C9.46785 10.5785 9.50843 10.5225 9.52902 10.4582C9.54961 10.3939 9.54913 10.3247 9.52765 10.2607L8.76723 7.90345C8.71805 7.75122 8.71813 7.58736 8.76746 7.43518C8.81679 7.283 8.91286 7.15026 9.042 7.05584L11.047 5.59026C11.1009 5.55074 11.141 5.49519 11.1615 5.43154C11.182 5.36789 11.1819 5.29939 11.1611 5.23582C11.1404 5.17225 11.1001 5.11685 11.046 5.07754C10.9919 5.03823 10.9268 5.017 10.8599 5.0169H8.38905C8.228 5.01687 8.07112 4.96569 7.94101 4.87076C7.81091 4.77582 7.71431 4.64203 7.66514 4.48867L6.91892 2.15115C6.89836 2.08717 6.85803 2.03137 6.80373 1.99178C6.74944 1.95219 6.68397 1.93086 6.61678 1.93086C6.54958 1.93086 6.48412 1.95219 6.42982 1.99178C6.37552 2.03137 6.33519 2.08717 6.31464 2.15115L5.56284 4.48918C5.51374 4.64229 5.41737 4.77591 5.28758 4.87082C5.15778 4.96573 5.00124 5.01705 4.84044 5.01741H2.37162Z" fill="#0185EB"/>
</svg>
