<svg width="14" height="14" viewBox="0 0 14 14" fill="none" xmlns="http://www.w3.org/2000/svg">
<path d="M14 5.83331C13.9993 5.38065 13.867 4.93796 13.6191 4.55919C13.3713 4.18042 13.0186 3.88192 12.6041 3.70006C12.6461 3.57756 12.6922 3.45448 12.7283 3.33256C12.8432 2.94769 12.8658 2.54119 12.7944 2.14595C12.7229 1.75071 12.5594 1.37785 12.3171 1.05756C12.0734 0.728046 11.7554 0.460582 11.3891 0.276841C11.0227 0.0931004 10.6182 -0.00174926 10.2083 -2.26185e-05H3.79167C3.38181 -0.00174926 2.97731 0.0931004 2.61094 0.276841C2.24458 0.460582 1.92665 0.728046 1.68292 1.05756C1.44098 1.37806 1.27794 1.75104 1.207 2.14628C1.13605 2.54153 1.15921 2.94793 1.27458 3.33256C1.31075 3.45448 1.35683 3.57756 1.39883 3.70006C0.983765 3.88148 0.630478 4.17979 0.382084 4.5586C0.133689 4.93741 0.000927565 5.38033 0 5.83331C0 7.67081 1.38775 9.79998 5.25 9.90673V11.375C5.26151 11.4927 5.24678 11.6116 5.20687 11.723C5.16697 11.8344 5.10288 11.9355 5.01921 12.0192C4.93555 12.1029 4.83438 12.1669 4.72299 12.2068C4.61161 12.2468 4.49276 12.2615 4.375 12.25H3.79167C3.5596 12.25 3.33704 12.3422 3.17295 12.5063C3.00885 12.6704 2.91667 12.8929 2.91667 13.125C2.91667 13.357 3.00885 13.5796 3.17295 13.7437C3.33704 13.9078 3.5596 14 3.79167 14H10.2083C10.4404 14 10.663 13.9078 10.8271 13.7437C10.9911 13.5796 11.0833 13.357 11.0833 13.125C11.0833 12.8929 10.9911 12.6704 10.8271 12.5063C10.663 12.3422 10.4404 12.25 10.2083 12.25H9.6355C9.51703 12.2626 9.39723 12.2488 9.28477 12.2094C9.17232 12.1701 9.07001 12.1062 8.98526 12.0225C8.90052 11.9387 8.83544 11.8372 8.79476 11.7252C8.75407 11.6132 8.73878 11.4936 8.75 11.375V9.90673C12.6122 9.79998 14 7.67081 14 5.83331ZM12.25 5.83331C12.25 6.75906 11.5768 7.73498 9.79183 8.05639C10.6458 7.2639 11.3597 6.33283 11.9035 5.30248C12.0063 5.34814 12.0937 5.42254 12.1551 5.51672C12.2166 5.6109 12.2496 5.72084 12.25 5.83331ZM3.08467 2.10523C3.16632 1.99464 3.27288 1.90484 3.39572 1.84312C3.51855 1.7814 3.6542 1.74949 3.79167 1.74998H10.2083C10.3458 1.74949 10.4814 1.7814 10.6043 1.84312C10.7271 1.90484 10.8337 1.99464 10.9153 2.10523C10.994 2.20771 11.0472 2.32741 11.0707 2.45447C11.0941 2.58153 11.087 2.71234 11.0501 2.83614C10.5767 4.37471 9.70375 5.76019 8.52017 6.85123C8.05018 7.20219 7.6682 7.65759 7.40438 8.18148C7.14056 8.70537 7.00213 9.28341 7 9.86998C6.99778 9.28326 6.85932 8.70508 6.59551 8.18102C6.33171 7.65695 5.94978 7.20133 5.47983 6.85006C4.29605 5.75942 3.42302 4.37407 2.94992 2.83556C2.91305 2.71184 2.90605 2.58114 2.92947 2.45419C2.95289 2.32724 3.00608 2.20765 3.08467 2.10523ZM1.75 5.83331C1.75044 5.72084 1.78338 5.6109 1.84485 5.51672C1.90633 5.42254 1.99372 5.34814 2.0965 5.30248C2.64032 6.33295 3.35447 7.26405 4.20875 8.05639C2.42317 7.73556 1.75 6.75906 1.75 5.83331Z" fill="#0185EB"/>
</svg>
