<svg width="13" height="13" viewBox="0 0 13 13" fill="none" xmlns="http://www.w3.org/2000/svg">
<path d="M8.33342 3.88581C8.33342 3.73541 8.37801 3.58839 8.46157 3.46334C8.54512 3.33829 8.66389 3.24083 8.80283 3.18327C8.94178 3.12572 9.09468 3.11066 9.24218 3.14C9.38969 3.16934 9.52518 3.24176 9.63153 3.34811C9.73787 3.45446 9.8103 3.58995 9.83964 3.73746C9.86898 3.88496 9.85392 4.03786 9.79636 4.1768C9.73881 4.31575 9.64135 4.43451 9.5163 4.51807C9.39125 4.60162 9.24423 4.64622 9.09383 4.64622C8.89216 4.64622 8.69874 4.56611 8.55614 4.4235C8.41353 4.2809 8.33342 4.08748 8.33342 3.88581ZM7.573 6.16706C7.72339 6.16706 7.87041 6.12246 7.99546 6.0389C8.12051 5.95535 8.21798 5.83659 8.27553 5.69764C8.33309 5.55869 8.34815 5.4058 8.3188 5.25829C8.28946 5.11078 8.21704 4.97529 8.11069 4.86894C8.00435 4.7626 7.86885 4.69017 7.72135 4.66083C7.57384 4.63149 7.42095 4.64655 7.282 4.70411C7.14305 4.76166 7.02429 4.85912 6.94073 4.98417C6.85718 5.10922 6.81258 5.25624 6.81258 5.40664C6.81258 5.60831 6.8927 5.80173 7.0353 5.94433C7.17791 6.08694 7.37132 6.16706 7.573 6.16706ZM6.05217 7.68789C6.20256 7.68789 6.34958 7.64329 6.47463 7.55974C6.59968 7.47618 6.69714 7.35742 6.7547 7.21847C6.81225 7.07952 6.82731 6.92663 6.79797 6.77912C6.76863 6.63162 6.69621 6.49612 6.58986 6.38978C6.48351 6.28343 6.34802 6.21101 6.20052 6.18167C6.05301 6.15233 5.90011 6.16738 5.76117 6.22494C5.62222 6.28249 5.50346 6.37996 5.4199 6.50501C5.33635 6.63006 5.29175 6.77708 5.29175 6.92747C5.29175 7.12915 5.37186 7.32256 5.51447 7.46517C5.65707 7.60777 5.85049 7.68789 6.05217 7.68789ZM12.8153 1.8849L12.7773 1.99085C11.9388 4.31722 11.1378 6.51533 9.29205 8.42448C9.15491 9.73199 8.5628 10.9498 7.61913 11.8651C7.36052 12.1113 7.01752 12.2491 6.6605 12.2504C6.29748 12.2504 5.94934 12.1062 5.69265 11.8495C5.43596 11.5928 5.29175 11.2447 5.29175 10.8816V10.0548C4.99398 9.94553 4.7181 9.78399 4.47709 9.57778L3.54837 10.507C3.40571 10.6497 3.21224 10.7298 3.0105 10.7298C2.80876 10.7298 2.61528 10.6497 2.47263 10.507C2.32998 10.3644 2.24984 10.1709 2.24984 9.96914C2.24984 9.7674 2.32998 9.57392 2.47263 9.43127L3.40237 8.50153C3.09172 8.12272 2.89095 7.66595 2.82191 7.18094H2.098C1.73498 7.18094 1.38684 7.03674 1.13015 6.78005C0.873455 6.52336 0.729248 6.17521 0.729248 5.81219C0.730649 5.45535 0.868493 5.11255 1.11453 4.85407C1.64238 4.31476 2.27169 3.88518 2.96624 3.59007C3.66078 3.29495 4.40684 3.14013 5.16146 3.13451C6.9236 1.66792 8.90576 0.954653 10.9913 0.202348L11.0968 0.164327C11.3368 0.0778187 11.5966 0.0614222 11.8456 0.117054C12.0947 0.172685 12.3227 0.298046 12.5032 0.478488C12.6836 0.658929 12.809 0.886998 12.8646 1.13604C12.9202 1.38509 12.9038 1.64482 12.8173 1.8849H12.8153ZM11.2575 1.72217C9.04922 2.51959 7.13449 3.24706 5.49453 4.8855C5.14547 5.27956 4.82027 5.69414 4.52069 6.12701C4.3611 6.35391 4.28685 6.62992 4.31106 6.90626C4.33527 7.18261 4.45639 7.4415 4.653 7.63719L5.37489 8.35706C5.57068 8.55305 5.82937 8.67364 6.10537 8.69756C6.38137 8.72149 6.65695 8.64722 6.88355 8.48785C7.31588 8.18998 7.72099 7.85443 8.09414 7.48511C9.73258 5.84515 10.4626 3.93042 11.2575 1.72217Z" fill="#0185EB"/>
</svg>
