<svg width="13" height="13" viewBox="0 0 13 13" fill="none" xmlns="http://www.w3.org/2000/svg">
<path d="M11.6468 4.7311L8.0546 1.1389C6.96495 0.0520492 5.20124 0.0520492 4.11159 1.1389L0.519388 4.7311C0.185565 5.06314 -0.0015443 5.51492 -0.00023734 5.98578V11.2468C0.00087952 11.9336 0.557598 12.4898 1.24432 12.4904H10.9219C11.6086 12.4898 12.1653 11.9336 12.1664 11.2468V5.98578C12.1677 5.51492 11.9806 5.06314 11.6468 4.7311ZM10.6456 10.9695H8.11087V9.35644C8.11087 8.28749 7.24431 7.42092 6.17535 7.42092H5.99084C4.92188 7.42092 4.05532 8.28749 4.05532 9.35644V10.9695H1.52059V5.98578C1.52076 5.91856 1.54733 5.85411 1.59461 5.80632L5.18682 2.21412C5.68168 1.71912 6.48413 1.71902 6.97914 2.21389C6.97921 2.21396 6.9793 2.21405 6.97937 2.21412L10.5716 5.80632C10.6188 5.85411 10.6454 5.91856 10.6456 5.98578V10.9695H10.6456Z" fill="#0185EB"/>
</svg>
