<svg width="12" height="12" viewBox="0 0 12 12" fill="none" xmlns="http://www.w3.org/2000/svg">
<path d="M6 0C4.81331 0 3.65328 0.351894 2.66658 1.01118C1.67989 1.67047 0.910851 2.60754 0.456726 3.7039C0.00259972 4.80026 -0.11622 6.00666 0.115291 7.17054C0.346802 8.33443 0.918247 9.40353 1.75736 10.2426C2.59648 11.0818 3.66558 11.6532 4.82946 11.8847C5.99335 12.1162 7.19975 11.9974 8.2961 11.5433C9.39246 11.0892 10.3295 10.3201 10.9888 9.33342C11.6481 8.34673 12 7.18669 12 6C11.9983 4.40923 11.3656 2.88411 10.2407 1.75926C9.1159 0.634414 7.59077 0.00172054 6 0V0ZM10.018 8.0145C8.44916 8.40812 6.79724 8.31002 5.286 7.7335C5.52602 7.40585 5.80735 7.11058 6.123 6.855C6.82112 7.11763 7.56063 7.2531 8.3065 7.255C9.02379 7.25343 9.73553 7.12931 10.411 6.888C10.3312 7.27944 10.199 7.65834 10.018 8.0145ZM6.218 1.511C7.20472 2.71605 7.81229 4.18642 7.964 5.7365C7.53834 5.70541 7.11886 5.61677 6.717 5.473C6.59403 4.02596 5.97268 2.66645 4.959 1.6265C5.29987 1.54384 5.64925 1.50138 6 1.5C6.073 1.5 6.144 1.5075 6.216 1.511H6.218ZM10.435 5.2535C10.1238 5.40796 9.79645 5.52768 9.459 5.6105C9.34658 4.43892 9.01481 3.29894 8.481 2.25C8.99448 2.59052 9.43265 3.03276 9.7684 3.54937C10.1041 4.06599 10.3303 4.64598 10.433 5.2535H10.435ZM3.4585 2.29C3.69165 2.47865 3.90644 2.68892 4.1 2.918C3.0431 3.69262 2.16072 4.68062 1.51 5.818C1.53791 5.11889 1.72858 4.43593 2.06684 3.82347C2.4051 3.211 2.88163 2.68592 3.4585 2.29ZM2.1055 8.244C2.57636 6.63068 3.55257 5.21107 4.8905 4.194C5.07935 4.65993 5.19293 5.15291 5.227 5.6545C4.06789 6.57355 3.27095 7.87274 2.977 9.3225C2.63283 9.0099 2.33888 8.64613 2.1055 8.244ZM4.371 10.19C4.39877 9.80714 4.47281 9.42906 4.5915 9.064C5.70648 9.51854 6.89844 9.75449 8.1025 9.759C8.2315 9.759 8.3605 9.7505 8.4895 9.7455C7.88998 10.1468 7.20216 10.3968 6.48491 10.4742C5.76766 10.5516 5.04234 10.4541 4.371 10.19Z" fill="#0185EB"/>
</svg>
