<svg width="14" height="13" viewBox="0 0 14 13" fill="none" xmlns="http://www.w3.org/2000/svg">
<g clip-path="url(#clip0_53_495)">
<path d="M4.4133 12.4899C4.97326 12.4899 5.42719 12.036 5.42719 11.476C5.42719 10.9161 4.97326 10.4621 4.4133 10.4621C3.85335 10.4621 3.39941 10.9161 3.39941 11.476C3.39941 12.036 3.85335 12.4899 4.4133 12.4899Z" fill="#0185EB"/>
<path d="M9.48288 12.4899C10.0428 12.4899 10.4968 12.036 10.4968 11.476C10.4968 10.9161 10.0428 10.4621 9.48288 10.4621C8.92293 10.4621 8.46899 10.9161 8.46899 11.476C8.46899 12.036 8.92293 12.4899 9.48288 12.4899Z" fill="#0185EB"/>
<path d="M12.5164 3.37371C12.1595 3.03249 11.6818 2.84687 11.1882 2.85764H3.73101L3.59768 1.81232C3.54927 1.40205 3.35201 1.0238 3.04329 0.749281C2.73457 0.474761 2.33586 0.323055 1.92274 0.322922L1.62516 0.322922C1.42349 0.322922 1.23007 0.403037 1.08747 0.545643C0.944861 0.688248 0.864746 0.881663 0.864746 1.08334H0.864746C0.864746 1.28501 0.944861 1.47843 1.08747 1.62103C1.23007 1.76364 1.42349 1.84376 1.62516 1.84376H1.92274C1.96421 1.8442 2.00405 1.85999 2.03457 1.88807C2.06508 1.91616 2.08412 1.95455 2.088 1.99584L2.84842 7.957C2.89638 8.36759 3.09346 8.74627 3.40224 9.02112C3.71102 9.29597 4.10998 9.44785 4.52336 9.44792H9.65466C10.2651 9.44756 10.8585 9.24691 11.3438 8.87676C11.8292 8.50661 12.1797 7.98741 12.3415 7.39885L12.9731 5.10189C13.0573 4.79922 13.0594 4.47959 12.9791 4.17585C12.8988 3.87212 12.7391 3.59525 12.5164 3.37371ZM10.8769 6.99583C10.8027 7.26315 10.6431 7.49885 10.4224 7.66699C10.2017 7.83513 9.93209 7.92647 9.65466 7.92709H4.52336C4.48191 7.92675 4.44208 7.91098 4.41162 7.88286C4.38116 7.85475 4.36226 7.8163 4.35861 7.775L3.92517 4.37848H11.2642C11.3034 4.37818 11.342 4.38697 11.3772 4.40413C11.4124 4.4213 11.4432 4.44639 11.467 4.47743C11.4909 4.50847 11.5073 4.54461 11.5148 4.58303C11.5224 4.62145 11.5209 4.6611 11.5106 4.69887L10.8769 6.99583Z" fill="#0185EB"/>
</g>
<defs>
<clipPath id="clip0_53_495">
<rect width="12.1667" height="12.1667" fill="white" transform="translate(0.864746 0.322922)"/>
</clipPath>
</defs>
</svg>
